<mxfile host="Electron" modified="2024-01-18T14:06:43.553Z" agent="Mozilla/5.0 (Macintosh; Intel Mac OS X 10_15_7) AppleWebKit/537.36 (KHTML, like Gecko) draw.io/22.1.16 Chrome/120.0.6099.109 Electron/28.1.0 Safari/537.36" etag="mTuOa8rnAxC5fY8Wc0Ok" version="22.1.16" type="device">
  <diagram id="C5RBs43oDa-KdzZeNtuy" name="Page-1">
    <mxGraphModel dx="330" dy="679" grid="1" gridSize="10" guides="1" tooltips="1" connect="1" arrows="1" fold="1" page="1" pageScale="1" pageWidth="827" pageHeight="1169" math="0" shadow="0">
      <root>
        <mxCell id="WIyWlLk6GJQsqaUBKTNV-0" />
        <mxCell id="WIyWlLk6GJQsqaUBKTNV-1" parent="WIyWlLk6GJQsqaUBKTNV-0" />
        <mxCell id="AUsNLnRkie0-mLKOHLI2-0" value="w번 반복" style="swimlane;whiteSpace=wrap;html=1;" parent="WIyWlLk6GJQsqaUBKTNV-1" vertex="1">
          <mxGeometry x="90" y="310" width="1080" height="1510" as="geometry" />
        </mxCell>
        <mxCell id="AUsNLnRkie0-mLKOHLI2-1" value="i번사건을 처리하는데의 최소 비용은 경찰차 1이 아무 사건을 해결하지 않았을 때부터 경찰차 2가 아무사건을 해결하지 않았을때까지의 스펙트럼에 거리 절대값을 더한 것과 같다&lt;br&gt;" style="text;html=1;strokeColor=none;fillColor=none;align=center;verticalAlign=middle;whiteSpace=wrap;rounded=0;" parent="AUsNLnRkie0-mLKOHLI2-0" vertex="1">
          <mxGeometry x="74" y="90" width="250" height="10" as="geometry" />
        </mxCell>
        <mxCell id="AUsNLnRkie0-mLKOHLI2-3" value="i - 1번 반복( 0부터 i - 2 까지)" style="swimlane;whiteSpace=wrap;html=1;" parent="AUsNLnRkie0-mLKOHLI2-0" vertex="1">
          <mxGeometry x="140" y="150" width="590" height="410" as="geometry" />
        </mxCell>
        <mxCell id="AUsNLnRkie0-mLKOHLI2-7" value="경찰차 1이 i - 1번을 했고 2가 j번을 했을때" style="whiteSpace=wrap;html=1;" parent="AUsNLnRkie0-mLKOHLI2-3" vertex="1">
          <mxGeometry x="20" y="40" width="250" height="30" as="geometry" />
        </mxCell>
        <mxCell id="AUsNLnRkie0-mLKOHLI2-9" value="[i - i - 1] + table[ i&amp;nbsp; - 1 ][ j ] 가&amp;nbsp;&lt;br&gt;[i - j] + table[ i - 1 ][ j ] 보다 큰가" style="rhombus;whiteSpace=wrap;html=1;" parent="AUsNLnRkie0-mLKOHLI2-3" vertex="1">
          <mxGeometry x="30" y="75" width="210" height="100" as="geometry" />
        </mxCell>
        <mxCell id="noxKPlmNtY173A3m6z9H-0" value="&lt;span style=&quot;color: rgb(240, 240, 240); font-family: Helvetica; font-size: 12px; font-style: normal; font-variant-ligatures: normal; font-variant-caps: normal; font-weight: 400; letter-spacing: normal; orphans: 2; text-align: center; text-indent: 0px; text-transform: none; widows: 2; word-spacing: 0px; -webkit-text-stroke-width: 0px; background-color: rgb(27, 29, 30); text-decoration-thickness: initial; text-decoration-style: initial; text-decoration-color: initial; float: none; display: inline !important;&quot;&gt;table[ i ][ j ] 가 기존 값보다 큰가?&lt;/span&gt;" style="rounded=0;whiteSpace=wrap;html=1;shape=rhombus;perimeter=rhombusPerimeter;" vertex="1" parent="AUsNLnRkie0-mLKOHLI2-3">
          <mxGeometry x="40" y="190" width="172.5" height="80" as="geometry" />
        </mxCell>
        <mxCell id="noxKPlmNtY173A3m6z9H-1" value="&lt;span style=&quot;color: rgb(240, 240, 240); font-family: Helvetica; font-size: 12px; font-style: normal; font-variant-ligatures: normal; font-variant-caps: normal; font-weight: 400; letter-spacing: normal; orphans: 2; text-align: center; text-indent: 0px; text-transform: none; widows: 2; word-spacing: 0px; -webkit-text-stroke-width: 0px; background-color: rgb(27, 29, 30); text-decoration-thickness: initial; text-decoration-style: initial; text-decoration-color: initial; float: none; display: inline !important;&quot;&gt;table[ i - 1 ][ i ] 가&amp;nbsp;&lt;/span&gt;기존 값보다 큰가?" style="rounded=0;whiteSpace=wrap;html=1;shape=rhombus;perimeter=rhombusPerimeter;" vertex="1" parent="AUsNLnRkie0-mLKOHLI2-3">
          <mxGeometry x="260" y="95" width="190" height="80" as="geometry" />
        </mxCell>
        <mxCell id="noxKPlmNtY173A3m6z9H-2" value="table[i][j] 의 before을 table[i - 1][j]로 한다" style="rounded=1;whiteSpace=wrap;html=1;" vertex="1" parent="AUsNLnRkie0-mLKOHLI2-3">
          <mxGeometry x="64" y="330" width="120" height="60" as="geometry" />
        </mxCell>
        <mxCell id="noxKPlmNtY173A3m6z9H-23" value="table[i][j]의 val을 바꾼다" style="rounded=1;whiteSpace=wrap;html=1;" vertex="1" parent="AUsNLnRkie0-mLKOHLI2-3">
          <mxGeometry x="184" y="260" width="120" height="60" as="geometry" />
        </mxCell>
        <mxCell id="noxKPlmNtY173A3m6z9H-24" value="table[i][j] 의 before을 table[i - 1][j]로 한다" style="rounded=1;whiteSpace=wrap;html=1;" vertex="1" parent="AUsNLnRkie0-mLKOHLI2-3">
          <mxGeometry x="340" y="200" width="120" height="60" as="geometry" />
        </mxCell>
        <mxCell id="noxKPlmNtY173A3m6z9H-25" value="table[i][j]의 val을 바꾼다" style="rounded=1;whiteSpace=wrap;html=1;" vertex="1" parent="AUsNLnRkie0-mLKOHLI2-3">
          <mxGeometry x="460" y="130" width="120" height="60" as="geometry" />
        </mxCell>
        <mxCell id="AUsNLnRkie0-mLKOHLI2-5" value="i - 1번 반복( 0부터 i - 2 까지)" style="swimlane;whiteSpace=wrap;html=1;" parent="AUsNLnRkie0-mLKOHLI2-0" vertex="1">
          <mxGeometry x="140" y="610" width="750" height="620" as="geometry" />
        </mxCell>
        <mxCell id="AUsNLnRkie0-mLKOHLI2-8" value="경찰차 2가 i - 1번을 했고 1이 j번을 했을때" style="whiteSpace=wrap;html=1;" parent="AUsNLnRkie0-mLKOHLI2-5" vertex="1">
          <mxGeometry x="10" y="40" width="250" height="30" as="geometry" />
        </mxCell>
        <mxCell id="noxKPlmNtY173A3m6z9H-26" value="[i - i - 1] + table[ j ][ i - 1 ] 가&amp;nbsp;&lt;br&gt;[i - j] + table[ j ][ i - 1] 보다 큰가" style="rhombus;whiteSpace=wrap;html=1;" vertex="1" parent="AUsNLnRkie0-mLKOHLI2-5">
          <mxGeometry x="47" y="90" width="210" height="100" as="geometry" />
        </mxCell>
        <mxCell id="noxKPlmNtY173A3m6z9H-27" value="&lt;span style=&quot;color: rgb(240, 240, 240); font-family: Helvetica; font-size: 12px; font-style: normal; font-variant-ligatures: normal; font-variant-caps: normal; font-weight: 400; letter-spacing: normal; orphans: 2; text-align: center; text-indent: 0px; text-transform: none; widows: 2; word-spacing: 0px; -webkit-text-stroke-width: 0px; background-color: rgb(27, 29, 30); text-decoration-thickness: initial; text-decoration-style: initial; text-decoration-color: initial; float: none; display: inline !important;&quot;&gt;table[ j ][ i ] 가 기존 값보다 큰가?&lt;/span&gt;" style="rounded=0;whiteSpace=wrap;html=1;shape=rhombus;perimeter=rhombusPerimeter;" vertex="1" parent="AUsNLnRkie0-mLKOHLI2-5">
          <mxGeometry x="57" y="205" width="172.5" height="80" as="geometry" />
        </mxCell>
        <mxCell id="noxKPlmNtY173A3m6z9H-28" value="&lt;span style=&quot;color: rgb(240, 240, 240); font-family: Helvetica; font-size: 12px; font-style: normal; font-variant-ligatures: normal; font-variant-caps: normal; font-weight: 400; letter-spacing: normal; orphans: 2; text-align: center; text-indent: 0px; text-transform: none; widows: 2; word-spacing: 0px; -webkit-text-stroke-width: 0px; background-color: rgb(27, 29, 30); text-decoration-thickness: initial; text-decoration-style: initial; text-decoration-color: initial; float: none; display: inline !important;&quot;&gt;table[ i ][ i - 1 ] 가&amp;nbsp;&lt;/span&gt;기존 값보다 큰가?" style="rounded=0;whiteSpace=wrap;html=1;shape=rhombus;perimeter=rhombusPerimeter;" vertex="1" parent="AUsNLnRkie0-mLKOHLI2-5">
          <mxGeometry x="277" y="110" width="190" height="80" as="geometry" />
        </mxCell>
        <mxCell id="noxKPlmNtY173A3m6z9H-29" value="table[i][j] 의 before을 table[i - 1][j]로 한다" style="rounded=1;whiteSpace=wrap;html=1;" vertex="1" parent="AUsNLnRkie0-mLKOHLI2-5">
          <mxGeometry x="70" y="350" width="120" height="60" as="geometry" />
        </mxCell>
        <mxCell id="noxKPlmNtY173A3m6z9H-30" value="table[i][j]의 val을 바꾼다" style="rounded=1;whiteSpace=wrap;html=1;" vertex="1" parent="AUsNLnRkie0-mLKOHLI2-5">
          <mxGeometry x="201" y="275" width="120" height="60" as="geometry" />
        </mxCell>
        <mxCell id="noxKPlmNtY173A3m6z9H-31" value="table[i][j] 의 before을 table[i - 1][j]로 한다" style="rounded=1;whiteSpace=wrap;html=1;" vertex="1" parent="AUsNLnRkie0-mLKOHLI2-5">
          <mxGeometry x="357" y="215" width="120" height="60" as="geometry" />
        </mxCell>
        <mxCell id="noxKPlmNtY173A3m6z9H-32" value="table[i][j]의 val을 바꾼다" style="rounded=1;whiteSpace=wrap;html=1;" vertex="1" parent="AUsNLnRkie0-mLKOHLI2-5">
          <mxGeometry x="477" y="145" width="120" height="60" as="geometry" />
        </mxCell>
        <mxCell id="noxKPlmNtY173A3m6z9H-35" value="i = w - 1인가?" style="rhombus;whiteSpace=wrap;html=1;" vertex="1" parent="AUsNLnRkie0-mLKOHLI2-5">
          <mxGeometry x="290" y="380" width="125" height="80" as="geometry" />
        </mxCell>
        <mxCell id="noxKPlmNtY173A3m6z9H-36" value="해당 table의 val이 최저값인가??&amp;nbsp;" style="rounded=0;whiteSpace=wrap;html=1;" vertex="1" parent="AUsNLnRkie0-mLKOHLI2-5">
          <mxGeometry x="249.5" y="470" width="206" height="50" as="geometry" />
        </mxCell>
        <mxCell id="noxKPlmNtY173A3m6z9H-37" value="최소 Node를 바꿈" style="rounded=0;whiteSpace=wrap;html=1;" vertex="1" parent="AUsNLnRkie0-mLKOHLI2-5">
          <mxGeometry x="292.5" y="530" width="120" height="60" as="geometry" />
        </mxCell>
        <mxCell id="AUsNLnRkie0-mLKOHLI2-4" value="" style="rounded=0;whiteSpace=wrap;html=1;" parent="WIyWlLk6GJQsqaUBKTNV-1" vertex="1">
          <mxGeometry x="180" y="200" width="120" height="60" as="geometry" />
        </mxCell>
        <mxCell id="noxKPlmNtY173A3m6z9H-34" value="i 번 반복" style="swimlane;whiteSpace=wrap;html=1;" vertex="1" parent="WIyWlLk6GJQsqaUBKTNV-1">
          <mxGeometry x="189" y="1850" width="751" height="206" as="geometry" />
        </mxCell>
        <mxCell id="noxKPlmNtY173A3m6z9H-33" value="누가 맡았는지를 확인한다" style="rounded=1;whiteSpace=wrap;html=1;" vertex="1" parent="noxKPlmNtY173A3m6z9H-34">
          <mxGeometry x="81" y="86" width="120" height="60" as="geometry" />
        </mxCell>
      </root>
    </mxGraphModel>
  </diagram>
</mxfile>
